Monda-Regular.ufo
<glyph name="quotedbl" format="1">
  <advance width="750"/>
  <unicode hex="0022"/>
  <outline>
    <contour>
      <point x="308" y="1490" type="line"/>
      <point x="33" y="1490" type="line"/>
      <point x="108" y="995" type="line"/>
      <point x="307" y="995" type="line"/>
    </contour>
    <contour>
      <point x="718" y="1490" type="line"/>
      <point x="456" y="1490" type="line"/>
      <point x="457" y="995" type="line"/>
      <point x="633" y="995" type="line"/>
    </contour>
  </outline>
</glyph>
<glyph name="asterisk" format="1">
  <advance width="954"/>
  <unicode hex="002A"/>
  <outline>
    <contour>
      <point x="302" y="1359" type="line"/>
      <point x="343" y="1140" type="line"/>
      <point x="124" y="1238" type="line"/>
      <point x="63" y="1075" type="line"/>
      <point x="265" y="997" type="line"/>
      <point x="131" y="806" type="line"/>
      <point x="314" y="710" type="line"/>
      <point x="489" y="904" type="line"/>
      <point x="664" y="710" type="line"/>
      <point x="850" y="806" type="line"/>
      <point x="713" y="996" type="line"/>
      <point x="917" y="1074" type="line"/>
      <point x="856" y="1239" type="line"/>
      <point x="637" y="1139" type="line"/>
      <point x="675" y="1359" type="line"/>
    </contour>
  </outline>
</glyph>
<glyph name="comma" format="1">
  <advance width="388"/>
  <unicode hex="002C"/>
  <outline>
    <contour>
      <point x="127" y="-202" type="line"/>
      <point x="361" y="-237"/>
      <point x="337" y="-21"/>
      <point x="337" y="262" type="curve"/>
      <point x="70" y="262" type="line"/>
      <point x="70" y="-1" type="line"/>
      <point x="161" y="-1" type="line"/>
      <point x="160" y="-71"/>
      <point x="154" y="-65"/>
      <point x="94" y="-65" type="curve"/>
    </contour>
  </outline>
</glyph>
<glyph name="nine" format="1">
  <advance width="1111"/>
  <unicode hex="0039"/>
  <outline>
    <contour>
      <point x="84" y="405" type="line" smooth="yes"/>
      <point x="91" y="161"/>
      <point x="210" y="-24"/>
      <point x="550" y="-24" type="curve" smooth="yes"/>
      <point x="962" y="-24"/>
      <point x="1042" y="275"/>
      <point x="1042" y="540" type="curve" smooth="yes"/>
      <point x="1042" y="1003" type="line" smooth="yes"/>
      <point x="1042" y="1251"/>
      <point x="926" y="1518"/>
      <point x="550" y="1518" type="curve" smooth="yes"/>
      <point x="175" y="1518"/>
      <point x="67" y="1257"/>
      <point x="67" y="1003" type="curve" smooth="yes"/>
      <point x="67" y="763"/>
      <point x="138" y="550"/>
      <point x="458" y="550" type="curve" smooth="yes"/>
      <point x="561" y="550"/>
      <point x="665" y="564"/>
      <point x="755" y="592" type="curve"/>
      <point x="755" y="554" type="line" smooth="yes"/>
      <point x="755" y="470"/>
      <point x="763" y="224"/>
      <point x="550" y="224" type="curve" smooth="yes"/>
      <point x="370" y="224"/>
      <point x="366" y="351"/>
      <point x="366" y="429" type="curve"/>
      <point x="84" y="429" type="line"/>
    </contour>
    <contour>
      <point x="753" y="856" type="line"/>
      <point x="710" y="819"/>
      <point x="632" y="789"/>
      <point x="550" y="789" type="curve" smooth="yes"/>
      <point x="355" y="789"/>
      <point x="357" y="937"/>
      <point x="357" y="1016" type="curve" smooth="yes"/>
      <point x="357" y="1093"/>
      <point x="356" y="1266"/>
      <point x="550" y="1266" type="curve" smooth="yes"/>
      <point x="729" y="1266"/>
      <point x="753" y="1124"/>
      <point x="753" y="1052" type="curve" smooth="yes"/>
    </contour>
  </outline>
</glyph>
<glyph name="A" format="1">
  <advance width="1468"/>
  <unicode hex="0041"/>
  <outline>
    <contour>
      <point x="350" y="425" type="line"/>
      <point x="350" y="284" type="line"/>
      <point x="1108" y="284" type="line"/>
      <point x="1108" y="425" type="line"/>
    </contour>
    <component base="V" xScale="-1.0" xyScale="-1.11022302463e-16" yxScale="1.11022302463e-16" yScale="-1.0" xOffset="1460" yOffset="1490"/>
  </outline>
</glyph>
<glyph name="C" format="1">
  <advance width="1508"/>
  <unicode hex="0043"/>
  <outline>
    <contour>
      <point x="1387" y="904" type="line"/>
      <point x="1387" y="1001" type="line" smooth="yes"/>
      <point x="1387" y="1296"/>
      <point x="1306" y="1518"/>
      <point x="862" y="1518" type="curve" smooth="yes"/>
      <point x="666.0" y="1518.0" type="line" smooth="yes"/>
      <point x="227.0" y="1518.0"/>
      <point x="137.0" y="1302.0"/>
      <point x="137.0" y="1007.0" type="curve" smooth="yes"/>
      <point x="137.0" y="473.0" type="line" smooth="yes"/>
      <point x="137.0" y="186.0"/>
      <point x="230.0" y="-29.0"/>
      <point x="666.0" y="-29.0" type="curve" smooth="yes"/>
      <point x="862" y="-29" type="line" smooth="yes"/>
      <point x="1308" y="-29"/>
      <point x="1387" y="193"/>
      <point x="1387" y="480" type="curve" smooth="yes"/>
      <point x="1387" y="594" type="line"/>
      <point x="1053" y="594" type="line"/>
      <point x="1053" y="444" type="line" smooth="yes"/>
      <point x="1053" y="266"/>
      <point x="985" y="237"/>
      <point x="775" y="237" type="curve" smooth="yes"/>
      <point x="568" y="237"/>
      <point x="476.0" y="265.0"/>
      <point x="476.0" y="444.0" type="curve" smooth="yes"/>
      <point x="476.0" y="1042.0" type="line" smooth="yes"/>
      <point x="476.0" y="1220.0"/>
      <point x="570" y="1252"/>
      <point x="775" y="1252" type="curve" smooth="yes"/>
      <point x="982" y="1252"/>
      <point x="1053" y="1214"/>
      <point x="1053" y="1042" type="curve" smooth="yes"/>
      <point x="1053" y="904" type="line"/>
    </contour>
  </outline>
</glyph>
<glyph name="D" format="1">
  <advance width="1479"/>
  <unicode hex="0044"/>
  <outline>
    <contour>
      <point x="1003" y="473" type="line" smooth="yes"/>
      <point x="1003" y="355"/>
      <point x="992" y="266"/>
      <point x="782" y="266" type="curve" smooth="yes"/>
      <point x="494" y="266" type="line"/>
      <point x="494" y="1223" type="line"/>
      <point x="782" y="1223" type="line" smooth="yes"/>
      <point x="989" y="1223"/>
      <point x="1003" y="1125"/>
      <point x="1003" y="1013" type="curve" smooth="yes"/>
    </contour>
    <contour>
      <point x="811" y="0" type="line" smooth="yes"/>
      <point x="1247" y="0"/>
      <point x="1342" y="232"/>
      <point x="1342" y="519" type="curve" smooth="yes"/>
      <point x="1342" y="962" type="line" smooth="yes"/>
      <point x="1342" y="1257"/>
      <point x="1250" y="1490"/>
      <point x="811" y="1490" type="curve" smooth="yes"/>
      <point x="155" y="1490" type="line"/>
      <point x="155" y="0" type="line"/>
    </contour>
  </outline>
</glyph>
<glyph name="G" format="1">
  <advance width="1542.0"/>
  <unicode hex="0047"/>
  <outline>
    <contour>
      <point x="1316.0" y="0" type="curve"/>
      <point x="1387.0" y="0" type="line"/>
      <point x="1387.0" y="766" type="line"/>
      <point x="839.0" y="766" type="line"/>
      <point x="839.0" y="550" type="line"/>
      <point x="1116.0" y="550" type="line"/>
      <point x="1116.0" y="550"/>
      <point x="1316.0" y="0"/>
    </contour>
    <component base="C"/>
  </outline>
</glyph>
<glyph name="H" format="1">
  <advance width="1529"/>
  <unicode hex="0048"/>
  <outline>
    <contour>
      <point x="165" y="0" type="line"/>
      <point x="361" y="0" type="line"/>
      <point x="361" y="654" type="line"/>
      <point x="1168" y="654" type="line"/>
      <point x="1168" y="0" type="line"/>
      <point x="1364" y="0" type="line"/>
      <point x="1364" y="1490" type="line"/>
      <point x="1168" y="1490" type="line"/>
      <point x="1168" y="805" type="line"/>
      <point x="361" y="805" type="line"/>
      <point x="361" y="1490" type="line"/>
      <point x="165" y="1490" type="line"/>
    </contour>
  </outline>
</glyph>
<glyph name="J" format="1">
  <advance width="813"/>
  <unicode hex="004A"/>
  <outline>
    <contour>
      <point x="86" y="-28" type="line"/>
      <point x="284" y="-28" type="line" smooth="yes"/>
      <point x="585" y="-28"/>
      <point x="657" y="120"/>
      <point x="657" y="377" type="curve" smooth="yes"/>
      <point x="657" y="1490" type="line"/>
      <point x="318" y="1490" type="line"/>
      <point x="318" y="410" type="line" smooth="yes"/>
      <point x="318" y="262"/>
      <point x="317" y="234"/>
      <point x="86" y="234" type="curve"/>
    </contour>
  </outline>
</glyph>
<glyph name="K" format="1">
  <advance width="1389"/>
  <unicode hex="004B"/>
  <outline>
    <contour>
      <point x="155" y="1490" type="line"/>
      <point x="155" y="0" type="line"/>
      <point x="494" y="0" type="line"/>
      <point x="494" y="584" type="line"/>
      <point x="579" y="685" type="line"/>
      <point x="989" y="0" type="line"/>
      <point x="1377" y="0" type="line"/>
      <point x="893" y="800" type="line"/>
      <point x="1336" y="1490" type="line"/>
      <point x="962" y="1490" type="line"/>
      <point x="503.133065462" y="830.133660376" type="line"/>
      <point x="494" y="817" type="line"/>
      <point x="494" y="1490" type="line"/>
    </contour>
  </outline>
</glyph>
<glyph name="M" format="1">
  <advance width="1817"/>
  <unicode hex="004D"/>
  <outline>
    <contour>
      <point x="155" y="0" type="line"/>
      <point x="480" y="0" type="line"/>
      <point x="480" y="1074" type="line"/>
      <point x="798" y="269" type="line"/>
      <point x="1019" y="269" type="line"/>
      <point x="1337" y="1078" type="line"/>
      <point x="1337" y="0" type="line"/>
      <point x="1662" y="0" type="line"/>
      <point x="1660" y="1490" type="line"/>
      <point x="1216" y="1490" type="line"/>
      <point x="908" y="725" type="line"/>
      <point x="589" y="1490" type="line"/>
      <point x="155" y="1490" type="line"/>
    </contour>
  </outline>
</glyph>
<glyph name="N" format="1">
  <advance width="1510"/>
  <unicode hex="004E"/>
  <outline>
    <contour>
      <point x="155" y="0" type="line"/>
      <point x="458" y="0" type="line"/>
      <point x="458" y="868" type="line"/>
      <point x="1109" y="0" type="line"/>
      <point x="1355" y="0" type="line"/>
      <point x="1355" y="1490" type="line"/>
      <point x="1055" y="1490" type="line"/>
      <point x="1055" y="612" type="line"/>
      <point x="412" y="1490" type="line"/>
      <point x="155" y="1490" type="line"/>
    </contour>
  </outline>
</glyph>
<glyph name="O" format="1">
  <advance width="1539"/>
  <unicode hex="004F"/>
  <outline>
    <contour>
      <point x="1206" y="450" type="line" smooth="yes"/>
      <point x="1206" y="122"/>
      <point x="991" y="123"/>
      <point x="781" y="123" type="curve" smooth="yes"/>
      <point x="574" y="123"/>
      <point x="333" y="122"/>
      <point x="333" y="450" type="curve" smooth="yes"/>
      <point x="333" y="1036" type="line" smooth="yes"/>
      <point x="333" y="1365"/>
      <point x="576" y="1366"/>
      <point x="781" y="1366" type="curve" smooth="yes"/>
      <point x="988" y="1366"/>
      <point x="1206" y="1365"/>
      <point x="1206" y="1036" type="curve" smooth="yes"/>
    </contour>
    <contour>
      <point x="842" y="-29" type="line" smooth="yes"/>
      <point x="1278" y="-29"/>
      <point x="1402" y="203"/>
      <point x="1402" y="490" type="curve" smooth="yes"/>
      <point x="1402" y="991" type="line" smooth="yes"/>
      <point x="1402" y="1286"/>
      <point x="1281" y="1518"/>
      <point x="842" y="1518" type="curve" smooth="yes"/>
      <point x="696" y="1518" type="line" smooth="yes"/>
      <point x="257" y="1518"/>
      <point x="137" y="1302"/>
      <point x="137" y="1007" type="curve" smooth="yes"/>
      <point x="137" y="473" type="line" smooth="yes"/>
      <point x="137" y="186"/>
      <point x="260" y="-29"/>
      <point x="696" y="-29" type="curve" smooth="yes"/>
    </contour>
  </outline>
</glyph>
<glyph name="P" format="1">
  <advance width="1297"/>
  <unicode hex="0050"/>
  <outline>
    <contour>
      <point x="171" y="0" type="line"/>
      <point x="171" y="1490" type="line"/>
      <point x="762" y="1490" type="line" smooth="yes"/>
      <point x="1010.83407259" y="1490.0"/>
      <point x="1195.36576266" y="1346.03944212"/>
      <point x="1202.76895396" y="1027.09114439" type="curve" smooth="yes"/>
      <point x="1202.92264814" y="1020.46960845"/>
      <point x="1203.0" y="1013.77265286"/>
      <point x="1203" y="1007" type="curve" smooth="yes"/>
      <point x="1203" y="667"/>
      <point x="1014" y="537"/>
      <point x="761" y="537" type="curve" smooth="yes"/>
      <point x="367" y="537" type="line"/>
      <point x="367" y="0" type="line"/>
    </contour>
    <contour>
      <point x="367" y="693" type="line"/>
      <point x="778" y="693" type="line" smooth="yes"/>
      <point x="978.019933879" y="693.0"/>
      <point x="1005.72711857" y="873.880786445"/>
      <point x="1006.95525836" y="995.063191101" type="curve" smooth="yes"/>
      <point x="1006.9858364" y="998.080372319"/>
      <point x="1007.0" y="1001.06054634"/>
      <point x="1007" y="1004" type="curve" smooth="yes"/>
      <point x="1007" y="1116"/>
      <point x="989" y="1332"/>
      <point x="781" y="1332" type="curve" smooth="yes"/>
      <point x="367" y="1332" type="line"/>
    </contour>
  </outline>
</glyph>
<glyph name="Q" format="1">
  <advance width="1539"/>
  <unicode hex="0051"/>
  <outline>
    <contour>
      <point x="608" y="-14" type="line"/>
      <point x="741" y="-256"/>
      <point x="987" y="-389"/>
      <point x="1054" y="-409" type="curve"/>
      <point x="1174" y="-226" type="line"/>
      <point x="1037" y="-166"/>
      <point x="906" y="-41"/>
      <point x="877" y="46" type="curve"/>
    </contour>
    <component base="O"/>
  </outline>
</glyph>
<glyph name="R" format="1">
  <advance width="1361"/>
  <unicode hex="0052"/>
  <outline>
    <contour>
      <point x="717" y="651" type="line"/>
      <point x="1017" y="0" type="line"/>
      <point x="1216" y="0" type="line"/>
      <point x="883" y="709" type="line"/>
    </contour>
    <component base="P"/>
  </outline>
</glyph>
<glyph name="S" format="1">
  <advance width="1288"/>
  <unicode hex="0053"/>
  <outline>
    <contour>
      <point x="649" y="-24" type="curve" smooth="yes"/>
      <point x="1041" y="-24"/>
      <point x="1176" y="186"/>
      <point x="1176" y="438" type="curve" smooth="yes"/>
      <point x="1176.0" y="543.0"/>
      <point x="1148.75" y="620.0"/>
      <point x="1098.0" y="681.375" type="curve" smooth="yes"/>
      <point x="1047.25" y="742.75"/>
      <point x="973.0" y="788.5"/>
      <point x="879" y="831" type="curve" smooth="yes"/>
      <point x="691" y="916" type="line" smooth="yes"/>
      <point x="613.5" y="951.0"/>
      <point x="560.5" y="975.0"/>
      <point x="526.875" y="1002.25" type="curve" smooth="yes"/>
      <point x="493.25" y="1029.5"/>
      <point x="479.0" y="1060.0"/>
      <point x="479" y="1108" type="curve" smooth="yes"/>
      <point x="479" y="1193"/>
      <point x="558" y="1250"/>
      <point x="681" y="1245" type="curve" smooth="yes"/>
      <point x="740.0" y="1242.5"/>
      <point x="803.5" y="1226.75"/>
      <point x="862.875" y="1206.125" type="curve" smooth="yes"/>
      <point x="922.25" y="1185.5"/>
      <point x="977.5" y="1160.0"/>
      <point x="1020" y="1138" type="curve"/>
      <point x="1141" y="1366" type="line"/>
      <point x="1135.16941311" y="1370.43631611"/>
      <point x="1129.27813229" y="1374.77266574"/>
      <point x="1123.32872189" y="1379.00957685" type="curve" smooth="yes"/>
      <point x="988.465783406" y="1475.05309103"/>
      <point x="823.732891703" y="1520.0"/>
      <point x="659" y="1520" type="curve" smooth="yes"/>
      <point x="355" y="1520"/>
      <point x="134" y="1362"/>
      <point x="134" y="1077" type="curve" smooth="yes"/>
      <point x="134.0" y="1004.0"/>
      <point x="148.75" y="932.25"/>
      <point x="193.75" y="865.25" type="curve" smooth="yes"/>
      <point x="238.75" y="798.25"/>
      <point x="314.0" y="736.0"/>
      <point x="435" y="682" type="curve" smooth="yes"/>
      <point x="633" y="595" type="line" smooth="yes"/>
      <point x="725.5" y="553.5"/>
      <point x="779.0" y="526.0"/>
      <point x="809.375" y="499.5" type="curve" smooth="yes"/>
      <point x="839.75" y="473.0"/>
      <point x="847.0" y="447.5"/>
      <point x="847" y="410" type="curve" smooth="yes"/>
      <point x="847" y="322"/>
      <point x="766" y="255"/>
      <point x="648" y="255" type="curve" smooth="yes"/>
      <point x="575.0" y="255.0"/>
      <point x="485.25" y="278.0"/>
      <point x="406.375" y="305.625" type="curve" smooth="yes"/>
      <point x="327.5" y="333.25"/>
      <point x="259.5" y="365.5"/>
      <point x="230" y="384" type="curve"/>
      <point x="120" y="141" type="line"/>
      <point x="124.683141857" y="137.343862936"/>
      <point x="129.545167423" y="133.70966444"/>
      <point x="134.576994965" y="130.101772062" type="curve" smooth="yes"/>
      <point x="252.033094808" y="45.8840671004"/>
      <point x="462.010637388" y="-24.0"/>
    </contour>
  </outline>
</glyph>
<glyph name="T" format="1">
  <advance width="1106"/>
  <unicode hex="0054"/>
  <outline>
    <contour>
      <point x="391" y="0" type="line"/>
      <point x="730" y="0" type="line"/>
      <point x="730" y="1264" type="line"/>
      <point x="1055" y="1264" type="line"/>
      <point x="1055" y="1490" type="line"/>
      <point x="51" y="1490" type="line"/>
      <point x="51" y="1264" type="line"/>
      <point x="391" y="1264" type="line"/>
    </contour>
  </outline>
</glyph>
<glyph name="U" format="1">
  <advance width="1532"/>
  <unicode hex="0055"/>
  <outline>
    <contour>
      <point x="696.0" y="-29.0" type="curve" smooth="yes"/>
      <point x="842.0" y="-29.0" type="line" smooth="yes"/>
      <point x="1278.0" y="-29.0"/>
      <point x="1393.0" y="203.0"/>
      <point x="1393.0" y="490.0" type="curve" smooth="yes"/>
      <point x="1393.0" y="1490.0" type="line"/>
      <point x="1197.0" y="1490.0" type="line"/>
      <point x="1197.0" y="458.0" type="line" smooth="yes"/>
      <point x="1197.0" y="130.0"/>
      <point x="1021" y="123"/>
      <point x="781.0" y="123.0" type="curve" smooth="yes"/>
      <point x="544" y="123"/>
      <point x="342.0" y="130.0"/>
      <point x="342.0" y="458.0" type="curve" smooth="yes"/>
      <point x="342.0" y="1490.0" type="line"/>
      <point x="146.0" y="1490.0" type="line"/>
      <point x="146.0" y="473.0" type="line" smooth="yes"/>
      <point x="146.0" y="186.0"/>
      <point x="260.0" y="-29.0"/>
    </contour>
  </outline>
</glyph>
<glyph name="X" format="1">
  <advance width="1346"/>
  <unicode hex="0058"/>
  <outline>
    <contour>
      <point x="664.0" y="472.0" type="line"/>
      <point x="966.0" y="0.0" type="line"/>
      <point x="1340.0" y="0.0" type="line"/>
      <point x="848.0" y="756.0" type="line"/>
      <point x="1322.0" y="1490.0" type="line"/>
      <point x="945.0" y="1490.0" type="line"/>
      <point x="662.0" y="1041.0" type="line"/>
      <point x="370.0" y="1490.0" type="line"/>
      <point x="14.0" y="1490.0" type="line"/>
      <point x="483.0" y="756.0" type="line"/>
      <point x="6.0" y="0.0" type="line"/>
      <point x="359.0" y="0.0" type="line"/>
    </contour>
  </outline>
</glyph>
<glyph name="Y" format="1">
  <advance width="1353"/>
  <unicode hex="0059"/>
  <outline>
    <contour>
      <point x="507" y="0" type="line"/>
      <point x="846" y="0" type="line"/>
      <point x="846" y="505" type="line"/>
      <point x="1347" y="1490" type="line"/>
      <point x="1006" y="1490" type="line"/>
      <point x="679" y="862" type="line"/>
      <point x="362" y="1490" type="line"/>
      <point x="6" y="1490" type="line"/>
      <point x="507" y="505" type="line"/>
    </contour>
  </outline>
</glyph>
<glyph name="bracketleft" format="1">
  <advance width="644"/>
  <unicode hex="005B"/>
  <outline>
    <contour>
      <point x="367" y="78" type="line"/>
      <point x="367" y="1447" type="line"/>
      <point x="582" y="1447" type="line"/>
      <point x="582" y="1578" type="line"/>
      <point x="129" y="1578" type="line"/>
      <point x="129" y="-53" type="line"/>
      <point x="582" y="-53" type="line"/>
      <point x="582" y="78" type="line"/>
    </contour>
  </outline>
</glyph>
<glyph name="a" format="1">
  <advance width="1119"/>
  <unicode hex="0061"/>
  <outline>
    <contour>
      <point x="694" y="223" type="line"/>
      <point x="624" y="190"/>
      <point x="563" y="177"/>
      <point x="524" y="177" type="curve" smooth="yes"/>
      <point x="415" y="177"/>
      <point x="384" y="229"/>
      <point x="384" y="292" type="curve" smooth="yes"/>
      <point x="384" y="385"/>
      <point x="409" y="448"/>
      <point x="694" y="453" type="curve"/>
    </contour>
    <contour>
      <point x="795" y="0" type="line"/>
      <point x="1003" y="0" type="line"/>
      <point x="1003" y="287" type="line"/>
      <point x="1003" y="777" type="line" smooth="yes"/>
      <point x="1003" y="961"/>
      <point x="887" y="1104"/>
      <point x="548" y="1104" type="curve" smooth="yes"/>
      <point x="246" y="1104"/>
      <point x="101" y="978"/>
      <point x="101" y="757" type="curve" smooth="yes"/>
      <point x="101" y="732" type="line"/>
      <point x="389" y="732" type="line"/>
      <point x="389" y="780" type="line" smooth="yes"/>
      <point x="389" y="863"/>
      <point x="430" y="895"/>
      <point x="533" y="895" type="curve" smooth="yes"/>
      <point x="633" y="895"/>
      <point x="693" y="888"/>
      <point x="693" y="779" type="curve" smooth="yes"/>
      <point x="693" y="606" type="line"/>
      <point x="253" y="575"/>
      <point x="86" y="528"/>
      <point x="86" y="262" type="curve" smooth="yes"/>
      <point x="86" y="77"/>
      <point x="249" y="-24"/>
      <point x="415" y="-24" type="curve" smooth="yes"/>
      <point x="554" y="-24"/>
      <point x="673" y="35"/>
      <point x="736" y="113" type="curve"/>
    </contour>
  </outline>
</glyph>
<glyph name="b" format="1">
  <advance width="1163"/>
  <unicode hex="0062"/>
  <outline>
    <contour>
      <point x="142" y="0" type="line"/>
      <point x="142" y="1490" type="line"/>
      <point x="328" y="1490" type="line"/>
      <point x="328" y="0" type="line"/>
    </contour>
    <contour>
      <point x="327" y="864" type="curve"/>
      <point x="215" y="963" type="line"/>
      <point x="299" y="1041"/>
      <point x="441" y="1104"/>
      <point x="609" y="1104" type="curve" smooth="yes"/>
      <point x="912" y="1104"/>
      <point x="1044" y="990"/>
      <point x="1044" y="760" type="curve" smooth="yes"/>
      <point x="1044" y="330" type="line" smooth="yes"/>
      <point x="1044" y="108"/>
      <point x="904" y="-41"/>
      <point x="557" y="-22" type="curve" smooth="yes"/>
      <point x="389" y="-13"/>
      <point x="268" y="75"/>
      <point x="206" y="139" type="curve"/>
      <point x="328" y="218" type="line"/>
      <point x="328" y="171"/>
      <point x="445" y="126"/>
      <point x="593" y="126" type="curve" smooth="yes"/>
      <point x="766" y="126"/>
      <point x="858" y="167"/>
      <point x="858" y="329" type="curve" smooth="yes"/>
      <point x="858" y="761" type="line" smooth="yes"/>
      <point x="858" y="924"/>
      <point x="747" y="954"/>
      <point x="584" y="954" type="curve" smooth="yes"/>
      <point x="411" y="954"/>
      <point x="327" y="891"/>
    </contour>
  </outline>
</glyph>
<glyph name="c" format="1">
  <advance width="1151"/>
  <unicode hex="0063"/>
  <outline>
    <contour>
      <point x="1028" y="789" type="line" smooth="yes"/>
      <point x="1028" y="1019"/>
      <point x="877" y="1104"/>
      <point x="577" y="1104" type="curve" smooth="yes"/>
      <point x="274" y="1104"/>
      <point x="119.0" y="1000.0"/>
      <point x="119.0" y="770.0" type="curve" smooth="yes"/>
      <point x="119.0" y="310.0" type="line" smooth="yes"/>
      <point x="119.0" y="88.0"/>
      <point x="229.0" y="-24.0"/>
      <point x="577.0" y="-24.0" type="curve" smooth="yes"/>
      <point x="941.0" y="-24.0"/>
      <point x="1028" y="66"/>
      <point x="1028" y="287" type="curve" smooth="yes"/>
      <point x="1028" y="393" type="line"/>
      <point x="849" y="393" type="line"/>
      <point x="849" y="286" type="line" smooth="yes"/>
      <point x="849" y="124"/>
      <point x="740.0" y="126.0"/>
      <point x="577.0" y="126.0" type="curve" smooth="yes"/>
      <point x="404.0" y="126.0"/>
      <point x="305.0" y="147.0"/>
      <point x="305.0" y="309.0" type="curve" smooth="yes"/>
      <point x="305.0" y="771.0" type="line" smooth="yes"/>
      <point x="305.0" y="934.0"/>
      <point x="414.0" y="954.0"/>
      <point x="577.0" y="954.0" type="curve" smooth="yes"/>
      <point x="750.0" y="954.0"/>
      <point x="849" y="952"/>
      <point x="849" y="790" type="curve" smooth="yes"/>
      <point x="849" y="661" type="line"/>
      <point x="1028" y="661" type="line"/>
    </contour>
  </outline>
</glyph>
<glyph name="d" format="1">
  <advance width="1192"/>
  <unicode hex="0064"/>
  <outline>
    <contour>
      <point x="745" y="851" type="line"/>
      <point x="745" y="851"/>
      <point x="685" y="894"/>
      <point x="582" y="894" type="curve" smooth="yes"/>
      <point x="469" y="894"/>
      <point x="409" y="860"/>
      <point x="409" y="761" type="curve" smooth="yes"/>
      <point x="409" y="319" type="line" smooth="yes"/>
      <point x="409" y="220"/>
      <point x="465" y="186"/>
      <point x="577" y="186" type="curve" smooth="yes"/>
      <point x="690" y="186"/>
      <point x="785" y="220"/>
      <point x="785" y="319" type="curve"/>
      <point x="1048" y="411" type="line"/>
      <point x="1048" y="400" type="line" smooth="yes"/>
      <point x="1048" y="303"/>
      <point x="881" y="-25"/>
      <point x="536" y="-25" type="curve" smooth="yes"/>
      <point x="251" y="-25"/>
      <point x="99" y="98"/>
      <point x="99" y="319" type="curve" smooth="yes"/>
      <point x="99" y="761" type="line" smooth="yes"/>
      <point x="99" y="953"/>
      <point x="249" y="1104"/>
      <point x="564" y="1104" type="curve" smooth="yes"/>
      <point x="846" y="1104"/>
      <point x="1044" y="903"/>
      <point x="1048" y="659" type="curve"/>
      <point x="1048" y="649" type="line"/>
      <point x="745" y="649" type="line"/>
    </contour>
    <contour>
      <point x="1056" y="0" type="line"/>
      <point x="845" y="0" type="line"/>
      <point x="745" y="225" type="line"/>
      <point x="745" y="1490" type="line"/>
      <point x="1056" y="1490" type="line"/>
    </contour>
  </outline>
</glyph>
<glyph name="e" format="1">
  <advance width="1155"/>
  <unicode hex="0065"/>
  <outline>
    <contour>
      <point x="1028" y="552" type="line"/>
      <point x="266" y="552" type="line"/>
      <point x="266" y="661" type="line"/>
      <point x="1028" y="661" type="line"/>
    </contour>
    <component base="c"/>
  </outline>
</glyph>
<glyph name="f" format="1">
  <advance width="778"/>
  <unicode hex="0066"/>
  <outline>
    <contour>
      <point x="200" y="0" type="line"/>
      <point x="510" y="0" type="line"/>
      <point x="510" y="894" type="line"/>
      <point x="706" y="894" type="line"/>
      <point x="706" y="1080" type="line"/>
      <point x="510" y="1080" type="line"/>
      <point x="510" y="1130" type="line" smooth="yes"/>
      <point x="510" y="1201"/>
      <point x="514" y="1255"/>
      <point x="633" y="1255" type="curve" smooth="yes"/>
      <point x="709" y="1255" type="line"/>
      <point x="709" y="1468" type="line"/>
      <point x="540" y="1468" type="line" smooth="yes"/>
      <point x="328" y="1468"/>
      <point x="200" y="1363"/>
      <point x="200" y="1082" type="curve"/>
      <point x="200" y="1080" type="line"/>
      <point x="73" y="1080" type="line"/>
      <point x="73" y="894" type="line"/>
      <point x="200" y="894" type="line"/>
    </contour>
  </outline>
</glyph>
<glyph name="g" format="1">
  <advance width="1178.0"/>
  <unicode hex="0067"/>
  <outline>
    <contour>
      <point x="745" y="851" type="line"/>
      <point x="745" y="851"/>
      <point x="680" y="894"/>
      <point x="577" y="894" type="curve" smooth="yes"/>
      <point x="464" y="894"/>
      <point x="409" y="860"/>
      <point x="409" y="761" type="curve" smooth="yes"/>
      <point x="409" y="343" type="line" smooth="yes"/>
      <point x="409" y="244"/>
      <point x="474" y="210"/>
      <point x="577" y="210" type="curve" smooth="yes"/>
      <point x="690" y="210"/>
      <point x="785" y="244"/>
      <point x="785" y="343" type="curve"/>
      <point x="745" y="435" type="line"/>
      <point x="1048" y="435" type="line"/>
      <point x="1048" y="424" type="line" smooth="yes"/>
      <point x="1048" y="327"/>
      <point x="869" y="-1"/>
      <point x="524" y="-1" type="curve" smooth="yes"/>
      <point x="269" y="-1"/>
      <point x="99" y="135"/>
      <point x="99" y="343" type="curve" smooth="yes"/>
      <point x="99" y="761" type="line" smooth="yes"/>
      <point x="99" y="932"/>
      <point x="195" y="1104"/>
      <point x="510" y="1104" type="curve" smooth="yes"/>
      <point x="843" y="1104"/>
      <point x="1024" y="812"/>
      <point x="1048" y="659" type="curve"/>
      <point x="1048" y="649" type="line"/>
      <point x="745" y="649" type="line"/>
    </contour>
    <contour>
      <point x="165" y="-151" type="curve"/>
      <point x="454" y="-131" type="line"/>
      <point x="454" y="-200"/>
      <point x="504" y="-215"/>
      <point x="589" y="-215" type="curve" smooth="yes"/>
      <point x="705" y="-215"/>
      <point x="745" y="-184"/>
      <point x="745" y="-101" type="curve" smooth="yes"/>
      <point x="745" y="-33" type="line"/>
      <point x="1056" y="-77" type="line"/>
      <point x="1056" y="-275"/>
      <point x="958" y="-425"/>
      <point x="584" y="-425" type="curve" smooth="yes"/>
      <point x="301" y="-425"/>
      <point x="165" y="-318"/>
    </contour>
    <contour>
      <point x="1056.0" y="1081.0" type="line"/>
      <point x="1056" y="-77" type="line"/>
      <point x="745" y="-44" type="line"/>
      <point x="745.0" y="856.0" type="line"/>
      <point x="845.0" y="1081.0" type="line"/>
    </contour>
  </outline>
</glyph>
<glyph name="h" format="1">
  <advance width="1197"/>
  <unicode hex="0068"/>
  <outline>
    <contour>
      <point x="142" y="933" type="line"/>
      <point x="328" y="933" type="line"/>
      <point x="328" y="1490" type="line"/>
      <point x="142" y="1490" type="line"/>
    </contour>
    <component base="n"/>
  </outline>
</glyph>
<glyph name="i" format="1">
  <advance width="500"/>
  <unicode hex="0069"/>
  <outline>
    <contour>
      <point x="168" y="1435" type="line"/>
      <point x="168" y="1243" type="line"/>
      <point x="354" y="1243" type="line"/>
      <point x="354" y="1435" type="line"/>
    </contour>
    <contour>
      <point x="168" y="1080" type="line"/>
      <point x="168" y="0" type="line"/>
      <point x="354" y="0" type="line"/>
      <point x="354" y="1080" type="line"/>
    </contour>
  </outline>
</glyph>
<glyph name="j" format="1">
  <advance width="598"/>
  <unicode hex="006A"/>
  <outline>
    <contour>
      <point x="269" y="1243" type="line"/>
      <point x="455" y="1243" type="line"/>
      <point x="455" y="1435" type="line"/>
      <point x="269" y="1435" type="line"/>
    </contour>
    <contour>
      <point x="51" y="-257" type="line"/>
      <point x="159" y="-257" type="line" smooth="yes"/>
      <point x="334" y="-257"/>
      <point x="456" y="-142"/>
      <point x="456" y="28" type="curve" smooth="yes"/>
      <point x="456" y="1080" type="line"/>
      <point x="274" y="1080" type="line"/>
      <point x="274" y="56" type="line" smooth="yes"/>
      <point x="274" y="13"/>
      <point x="274" y="-116"/>
      <point x="123" y="-116" type="curve" smooth="yes"/>
      <point x="51" y="-116" type="line"/>
    </contour>
  </outline>
</glyph>
<glyph name="k" format="1">
  <advance width="1159"/>
  <unicode hex="006B"/>
  <outline>
    <contour>
      <point x="128" y="0" type="line"/>
      <point x="438" y="0" type="line"/>
      <point x="438" y="442" type="line"/>
      <point x="492" y="500" type="line"/>
      <point x="783" y="0" type="line"/>
      <point x="1143" y="0" type="line"/>
      <point x="780" y="597" type="line"/>
      <point x="1145" y="1080" type="line"/>
      <point x="779" y="1080" type="line"/>
      <point x="438" y="654" type="line"/>
      <point x="438" y="1490" type="line"/>
      <point x="128" y="1490" type="line"/>
    </contour>
  </outline>
</glyph>
<glyph name="l" format="1">
  <advance width="692"/>
  <unicode hex="006C"/>
  <outline>
    <contour>
      <point x="133" y="1490" type="line"/>
      <point x="133" y="338" type="line" smooth="yes"/>
      <point x="133" y="136"/>
      <point x="197" y="0"/>
      <point x="439" y="0" type="curve" smooth="yes"/>
      <point x="628" y="0" type="line"/>
      <point x="628" y="220" type="line"/>
      <point x="499" y="220"/>
      <point x="443" y="240"/>
      <point x="443" y="309" type="curve" smooth="yes"/>
      <point x="443" y="1490" type="line"/>
    </contour>
  </outline>
</glyph>
<glyph name="m" format="1">
  <advance width="1922.0"/>
  <unicode hex="006D"/>
  <outline>
    <contour>
      <point x="1058" y="730" type="line"/>
      <point x="1058" y="853"/>
      <point x="1164.0" y="943.0"/>
      <point x="1352.0" y="954.0" type="curve" smooth="yes"/>
      <point x="1366.0" y="955.0"/>
      <point x="1379.0" y="955.0"/>
      <point x="1391.0" y="955.0" type="curve" smooth="yes"/>
      <point x="1547.0" y="955.0"/>
      <point x="1602.0" y="891.0"/>
      <point x="1602.0" y="759.0" type="curve" smooth="yes"/>
      <point x="1602.0" y="0.0" type="line"/>
      <point x="1788.0" y="0.0" type="line"/>
      <point x="1788.0" y="762.0" type="line" smooth="yes"/>
      <point x="1788.0" y="944.0"/>
      <point x="1715.0" y="1104.0"/>
      <point x="1424.0" y="1104.0" type="curve" smooth="yes"/>
      <point x="1397.0" y="1104.0" type="line" smooth="yes"/>
      <point x="1250.0" y="1099.0"/>
      <point x="1128" y="1041"/>
      <point x="1050" y="963" type="curve" smooth="yes"/>
      <point x="1003" y="916" type="line"/>
    </contour>
    <contour>
      <point x="142.0" y="0.0" type="line"/>
      <point x="328.0" y="0.0" type="line"/>
      <point x="328.0" y="730.0" type="line" smooth="yes"/>
      <point x="328.0" y="853.0"/>
      <point x="434.0" y="943.0"/>
      <point x="622.0" y="954.0" type="curve" smooth="yes"/>
      <point x="636.0" y="955.0"/>
      <point x="649.0" y="955.0"/>
      <point x="661.0" y="955.0" type="curve" smooth="yes"/>
      <point x="817.0" y="955.0"/>
      <point x="872.0" y="891.0"/>
      <point x="872.0" y="759.0" type="curve" smooth="yes"/>
      <point x="872.0" y="0.0" type="line"/>
      <point x="1058.0" y="0.0" type="line"/>
      <point x="1058.0" y="762.0" type="line" smooth="yes"/>
      <point x="1058.0" y="944.0"/>
      <point x="985.0" y="1104.0"/>
      <point x="694.0" y="1104.0" type="curve" smooth="yes"/>
      <point x="667.0" y="1104.0" type="line" smooth="yes"/>
      <point x="520.0" y="1099.0"/>
      <point x="397.0" y="1043.0"/>
      <point x="328.0" y="958.0" type="curve"/>
      <point x="328.0" y="1080.0" type="line"/>
      <point x="142.0" y="1080.0" type="line"/>
    </contour>
  </outline>
</glyph>
<glyph name="n" format="1">
  <advance width="1192"/>
  <unicode hex="006E"/>
  <outline>
    <contour>
      <point x="142" y="0" type="line"/>
      <point x="328" y="0" type="line"/>
      <point x="328" y="730" type="line" smooth="yes"/>
      <point x="328" y="853"/>
      <point x="443" y="955"/>
      <point x="661" y="955" type="curve" smooth="yes"/>
      <point x="817" y="955"/>
      <point x="872" y="891"/>
      <point x="872" y="759" type="curve" smooth="yes"/>
      <point x="872" y="0" type="line"/>
      <point x="1058" y="0" type="line"/>
      <point x="1058" y="762" type="line" smooth="yes"/>
      <point x="1058" y="944"/>
      <point x="985" y="1104"/>
      <point x="694" y="1104" type="curve" smooth="yes"/>
      <point x="517" y="1104"/>
      <point x="397" y="1043"/>
      <point x="328" y="958" type="curve"/>
      <point x="328" y="1080" type="line"/>
      <point x="142" y="1080" type="line"/>
    </contour>
  </outline>
</glyph>
<glyph name="o" format="1">
  <advance width="1154"/>
  <unicode hex="006F"/>
  <outline>
    <contour>
      <point x="849" y="771" type="curve" smooth="yes"/>
      <point x="849" y="309" type="line" smooth="yes"/>
      <point x="849" y="147"/>
      <point x="740" y="126"/>
      <point x="577" y="126" type="curve" smooth="yes"/>
      <point x="404" y="126"/>
      <point x="305" y="147"/>
      <point x="305" y="309" type="curve" smooth="yes"/>
      <point x="305" y="771" type="line" smooth="yes"/>
      <point x="305" y="934"/>
      <point x="414" y="954"/>
      <point x="577" y="954" type="curve" smooth="yes"/>
      <point x="750" y="954"/>
      <point x="849" y="933"/>
    </contour>
    <contour>
      <point x="1035" y="770" type="line" smooth="yes"/>
      <point x="1035" y="1000"/>
      <point x="861" y="1104"/>
      <point x="577" y="1104" type="curve" smooth="yes"/>
      <point x="293" y="1104"/>
      <point x="119" y="1000"/>
      <point x="119" y="770" type="curve" smooth="yes"/>
      <point x="119" y="310" type="line" smooth="yes"/>
      <point x="119" y="88"/>
      <point x="229" y="-24"/>
      <point x="577" y="-24" type="curve" smooth="yes"/>
      <point x="941" y="-24"/>
      <point x="1035" y="89"/>
      <point x="1035" y="310" type="curve" smooth="yes"/>
    </contour>
  </outline>
</glyph>
<glyph name="p" format="1">
  <advance width="1163"/>
  <unicode hex="0070"/>
  <outline>
    <contour>
      <point x="142" y="1080" type="line"/>
      <point x="142" y="-410" type="line"/>
      <point x="328" y="-410" type="line"/>
      <point x="328" y="1080" type="line"/>
    </contour>
    <contour>
      <point x="315" y="206" type="curve"/>
      <point x="203" y="107" type="line"/>
      <point x="287" y="29"/>
      <point x="421" y="-24"/>
      <point x="589" y="-24" type="curve" smooth="yes"/>
      <point x="892" y="-24"/>
      <point x="1044" y="90"/>
      <point x="1044" y="320" type="curve" smooth="yes"/>
      <point x="1044" y="750" type="line" smooth="yes"/>
      <point x="1044" y="972"/>
      <point x="904" y="1121"/>
      <point x="557" y="1102" type="curve" smooth="yes"/>
      <point x="389" y="1093"/>
      <point x="268" y="988"/>
      <point x="206" y="924" type="curve"/>
      <point x="328" y="845" type="line"/>
      <point x="328" y="892"/>
      <point x="445" y="954"/>
      <point x="593" y="954" type="curve" smooth="yes"/>
      <point x="766" y="954"/>
      <point x="858" y="913"/>
      <point x="858" y="751" type="curve" smooth="yes"/>
      <point x="858" y="319" type="line" smooth="yes"/>
      <point x="858" y="156"/>
      <point x="732" y="126"/>
      <point x="569" y="126" type="curve" smooth="yes"/>
      <point x="396" y="126"/>
      <point x="315" y="179"/>
    </contour>
  </outline>
</glyph>
<glyph name="q" format="1">
  <advance width="1164"/>
  <unicode hex="0071"/>
  <outline>
    <contour>
      <point x="1021" y="1080" type="line"/>
      <point x="1021" y="-410" type="line"/>
      <point x="835" y="-410" type="line"/>
      <point x="835" y="1080" type="line"/>
    </contour>
    <contour>
      <point x="836" y="197" type="curve"/>
      <point x="948" y="98" type="line"/>
      <point x="864" y="20"/>
      <point x="742" y="-24"/>
      <point x="574" y="-24" type="curve" smooth="yes"/>
      <point x="271" y="-24"/>
      <point x="119" y="90"/>
      <point x="119" y="320" type="curve" smooth="yes"/>
      <point x="119" y="750" type="line" smooth="yes"/>
      <point x="119" y="972"/>
      <point x="259" y="1121"/>
      <point x="606" y="1102" type="curve" smooth="yes"/>
      <point x="774" y="1093"/>
      <point x="895" y="1005"/>
      <point x="957" y="941" type="curve"/>
      <point x="835" y="862" type="line"/>
      <point x="835" y="909"/>
      <point x="718" y="954"/>
      <point x="570" y="954" type="curve" smooth="yes"/>
      <point x="397" y="954"/>
      <point x="305" y="913"/>
      <point x="305" y="751" type="curve" smooth="yes"/>
      <point x="305" y="319" type="line" smooth="yes"/>
      <point x="305" y="156"/>
      <point x="431" y="126"/>
      <point x="594" y="126" type="curve" smooth="yes"/>
      <point x="767" y="126"/>
      <point x="836" y="170"/>
    </contour>
  </outline>
</glyph>
<glyph name="r" format="1">
  <advance width="787"/>
  <unicode hex="0072"/>
  <outline>
    <contour>
      <point x="126" y="0" type="line"/>
      <point x="436" y="0" type="line"/>
      <point x="436" y="710" type="line"/>
      <point x="466" y="796"/>
      <point x="621" y="832"/>
      <point x="740" y="842" type="curve"/>
      <point x="746" y="1097" type="line"/>
      <point x="656" y="1111"/>
      <point x="487" y="1014"/>
      <point x="436" y="932" type="curve"/>
      <point x="436" y="1080" type="line"/>
      <point x="126" y="1080" type="line"/>
    </contour>
  </outline>
</glyph>
<glyph name="s" format="1">
  <advance width="1009"/>
  <unicode hex="0073"/>
  <outline>
    <contour>
      <point x="86" y="102" type="curve"/>
      <point x="181" y="293" type="line"/>
      <point x="256" y="244"/>
      <point x="400" y="192"/>
      <point x="501" y="192" type="curve" smooth="yes"/>
      <point x="594" y="192"/>
      <point x="630" y="216"/>
      <point x="641" y="269" type="curve" smooth="yes"/>
      <point x="653" y="328"/>
      <point x="628" y="357"/>
      <point x="547" y="392" type="curve" smooth="yes" name="inserted"/>
      <point x="316" y="491" type="line" smooth="yes"/>
      <point x="154" y="560"/>
      <point x="92" y="641"/>
      <point x="92" y="780" type="curve" smooth="yes"/>
      <point x="92" y="1009"/>
      <point x="272" y="1104"/>
      <point x="490" y="1104" type="curve" smooth="yes"/>
      <point x="692" y="1104"/>
      <point x="815" y="1036"/>
      <point x="875" y="1003" type="curve"/>
      <point x="789" y="813" type="line"/>
      <point x="730" y="843"/>
      <point x="624" y="892"/>
      <point x="528" y="894" type="curve" smooth="yes"/>
      <point x="449" y="896" name="inserted"/>
      <point x="393" y="868"/>
      <point x="385" y="817" type="curve" smooth="yes"/>
      <point x="376" y="761"/>
      <point x="416" y="731"/>
      <point x="465" y="710" type="curve" smooth="yes" name="inserted"/>
      <point x="684" y="616" type="line" smooth="yes"/>
      <point x="859" y="541"/>
      <point x="932" y="482"/>
      <point x="932" y="313" type="curve" smooth="yes"/>
      <point x="932" y="125"/>
      <point x="818" y="-24"/>
      <point x="517" y="-24" type="curve" smooth="yes"/>
      <point x="370" y="-24"/>
      <point x="188" y="26"/>
    </contour>
  </outline>
</glyph>
<glyph name="t" format="1">
  <advance width="816"/>
  <unicode hex="0074"/>
  <outline>
    <contour>
      <point x="203" y="894" type="line"/>
      <point x="203" y="338" type="line" smooth="yes"/>
      <point x="203" y="115"/>
      <point x="281" y="0"/>
      <point x="513" y="0" type="curve" smooth="yes"/>
      <point x="698" y="0" type="line"/>
      <point x="698" y="220" type="line"/>
      <point x="543" y="220"/>
      <point x="513" y="253"/>
      <point x="513" y="309" type="curve" smooth="yes"/>
      <point x="513" y="894" type="line"/>
      <point x="702" y="894" type="line"/>
      <point x="702" y="1080" type="line"/>
      <point x="513" y="1080" type="line"/>
      <point x="513" y="1435" type="line"/>
      <point x="239" y="1435" type="line"/>
      <point x="212" y="1080" type="line"/>
      <point x="77" y="1080" type="line"/>
      <point x="77" y="894" type="line"/>
    </contour>
  </outline>
</glyph>
<glyph name="u" format="1">
  <advance width="1192"/>
  <unicode hex="0075"/>
  <outline>
    <contour>
      <point x="498" y="-24" type="curve" smooth="yes"/>
      <point x="668" y="-24"/>
      <point x="795" y="37"/>
      <point x="864" y="122" type="curve"/>
      <point x="864" y="0" type="line"/>
      <point x="1050" y="0" type="line"/>
      <point x="1050" y="1080" type="line"/>
      <point x="864" y="1080" type="line"/>
      <point x="864" y="350" type="line" smooth="yes"/>
      <point x="864" y="227"/>
      <point x="754" y="125"/>
      <point x="531" y="125" type="curve" smooth="yes"/>
      <point x="375" y="125"/>
      <point x="320" y="189"/>
      <point x="320" y="321" type="curve" smooth="yes"/>
      <point x="320" y="1080" type="line"/>
      <point x="134" y="1080" type="line"/>
      <point x="134" y="318" type="line" smooth="yes"/>
      <point x="134" y="136"/>
      <point x="207" y="-24"/>
    </contour>
  </outline>
</glyph>
<glyph name="v" format="1">
  <advance width="1118"/>
  <unicode hex="0076"/>
  <outline>
    <contour>
      <point x="661" y="0" type="line"/>
      <point x="1071" y="1080" type="line"/>
      <point x="888" y="1080" type="line"/>
      <point x="562" y="174" type="line"/>
      <point x="236" y="1080" type="line"/>
      <point x="47" y="1080" type="line"/>
      <point x="455" y="0" type="line"/>
    </contour>
  </outline>
</glyph>
<glyph name="w" format="1">
  <advance width="1520"/>
  <unicode hex="0077"/>
  <outline>
    <contour>
      <point x="277" y="0" type="line"/>
      <point x="559" y="0" type="line"/>
      <point x="762" y="708" type="line"/>
      <point x="953" y="0" type="line"/>
      <point x="1235" y="0" type="line"/>
      <point x="1471" y="1080" type="line"/>
      <point x="1202" y="1080" type="line"/>
      <point x="1066" y="401" type="line"/>
      <point x="878" y="1080" type="line"/>
      <point x="651" y="1080" type="line"/>
      <point x="458" y="414" type="line"/>
      <point x="320" y="1080" type="line"/>
      <point x="49" y="1080" type="line"/>
    </contour>
  </outline>
</glyph>
<glyph name="y" format="1">
  <advance width="1099"/>
  <unicode hex="0079"/>
  <outline>
    <contour>
      <point x="141.0" y="-416" type="line"/>
      <point x="264.0" y="-416" type="line" smooth="yes"/>
      <point x="577.0" y="-416"/>
      <point x="603" y="-336"/>
      <point x="749" y="105" type="curve" smooth="yes"/>
      <point x="1071" y="1080" type="line"/>
      <point x="775" y="1080" type="line"/>
      <point x="572" y="365" type="line"/>
      <point x="319" y="1080" type="line"/>
      <point x="22" y="1080" type="line"/>
      <point x="428" y="-4" type="line"/>
      <point x="397" y="-119"/>
      <point x="378.0" y="-208"/>
      <point x="260.0" y="-208" type="curve" smooth="yes"/>
      <point x="141.0" y="-208" type="line"/>
    </contour>
  </outline>
</glyph>
<glyph name="guillemotleft" format="1">
  <advance width="1139"/>
  <unicode hex="00AB"/>
  <outline>
    <contour>
      <point x="570" y="53" type="line"/>
      <point x="570" y="318" type="line"/>
      <point x="224" y="530" type="line"/>
      <point x="570" y="741" type="line"/>
      <point x="570" y="1006" type="line"/>
      <point x="65" y="583" type="line"/>
      <point x="65" y="477" type="line"/>
    </contour>
    <contour>
      <point x="1075" y="53" type="line"/>
      <point x="1075" y="318" type="line"/>
      <point x="856" y="530" type="line"/>
      <point x="1075" y="741" type="line"/>
      <point x="1075" y="1006" type="line"/>
      <point x="570" y="583" type="line"/>
      <point x="570" y="477" type="line"/>
    </contour>
  </outline>
</glyph>
<glyph name="logicalnot" format="1">
  <advance width="685"/>
  <unicode hex="00AC"/>
  <outline>
    <contour>
      <point x="565" y="559" type="line"/>
      <point x="113" y="559" type="line"/>
      <point x="113" y="375" type="line"/>
      <point x="434" y="375" type="line"/>
      <point x="434" y="214" type="line"/>
      <point x="565" y="214" type="line"/>
    </contour>
  </outline>
</glyph>
<glyph name="cedilla" format="1">
  <advance width="484"/>
  <unicode hex="00B8"/>
  <outline>
    <contour>
      <point x="297" y="0" type="line"/>
      <point x="156" y="0" type="line"/>
      <point x="156" y="-200" type="line"/>
      <point x="192" y="-213"/>
      <point x="292" y="-246"/>
      <point x="292" y="-296" type="curve" smooth="yes"/>
      <point x="292" y="-341"/>
      <point x="134" y="-331"/>
      <point x="109" y="-331" type="curve"/>
      <point x="109" y="-464" type="line"/>
      <point x="222" y="-464"/>
      <point x="480" y="-464"/>
      <point x="480" y="-300" type="curve" smooth="yes"/>
      <point x="480" y="-206"/>
      <point x="371" y="-142"/>
      <point x="297" y="-107" type="curve"/>
    </contour>
  </outline>
</glyph>
<glyph name="guillemotright" format="1">
  <advance width="1139"/>
  <unicode hex="00BB"/>
  <outline>
    <contour>
      <point x="570" y="53" type="line"/>
      <point x="1075" y="477" type="line"/>
      <point x="1075" y="583" type="line"/>
      <point x="570" y="1006" type="line"/>
      <point x="570" y="741" type="line"/>
      <point x="916" y="530" type="line"/>
      <point x="570" y="318" type="line"/>
    </contour>
    <contour>
      <point x="65" y="53" type="line"/>
      <point x="570" y="477" type="line"/>
      <point x="570" y="583" type="line"/>
      <point x="65" y="1006" type="line"/>
      <point x="65" y="741" type="line"/>
      <point x="284" y="530" type="line"/>
      <point x="65" y="318" type="line"/>
    </contour>
  </outline>
</glyph>
<glyph name="Egrave" format="1">
  <advance width="821"/>
  <unicode hex="00C8"/>
  <outline>
    <contour>
      <point x="441" y="1563" type="line"/>
      <point x="611" y="1563" type="line"/>
      <point x="498" y="1928" type="line"/>
      <point x="212" y="1928" type="line"/>
    </contour>
    <contour>
      <point x="162" y="0" type="line"/>
      <point x="943" y="0" type="line"/>
      <point x="943" y="261" type="line"/>
      <point x="501" y="261" type="line"/>
      <point x="501" y="636" type="line"/>
      <point x="850" y="636" type="line"/>
      <point x="850" y="877" type="line"/>
      <point x="501" y="877" type="line"/>
      <point x="501" y="1228" type="line"/>
      <point x="943" y="1228" type="line"/>
      <point x="943" y="1490" type="line"/>
      <point x="162" y="1490" type="line"/>
    </contour>
  </outline>
</glyph>
<glyph name="Ecircumflex" format="1">
  <advance width="821"/>
  <unicode hex="00CA"/>
  <outline>
    <contour>
      <point x="55" y="1563" type="line"/>
      <point x="300" y="1563" type="line"/>
      <point x="409" y="1730" type="line"/>
      <point x="520" y="1563" type="line"/>
      <point x="767" y="1563" type="line"/>
      <point x="597" y="1899" type="line"/>
      <point x="221" y="1899" type="line"/>
    </contour>
    <contour>
      <point x="162" y="0" type="line"/>
      <point x="943" y="0" type="line"/>
      <point x="943" y="261" type="line"/>
      <point x="501" y="261" type="line"/>
      <point x="501" y="636" type="line"/>
      <point x="850" y="636" type="line"/>
      <point x="850" y="877" type="line"/>
      <point x="501" y="877" type="line"/>
      <point x="501" y="1228" type="line"/>
      <point x="943" y="1228" type="line"/>
      <point x="943" y="1490" type="line"/>
      <point x="162" y="1490" type="line"/>
    </contour>
  </outline>
</glyph>
<glyph name="Odieresis" format="1">
  <advance width="1354"/>
  <unicode hex="00D6"/>
  <outline>
    <contour>
      <point x="277" y="1645" type="line"/>
      <point x="566" y="1645" type="line"/>
      <point x="566" y="1900" type="line"/>
      <point x="277" y="1900" type="line"/>
    </contour>
    <contour>
      <point x="789" y="1645" type="line"/>
      <point x="1079" y="1645" type="line"/>
      <point x="1079" y="1900" type="line"/>
      <point x="789" y="1900" type="line"/>
    </contour>
    <contour>
      <point x="917" y="404" type="line" smooth="yes"/>
      <point x="917" y="286"/>
      <point x="903" y="237"/>
      <point x="693" y="237" type="curve" smooth="yes"/>
      <point x="486" y="237"/>
      <point x="469" y="285"/>
      <point x="469" y="404" type="curve" smooth="yes"/>
      <point x="469" y="1082" type="line" smooth="yes"/>
      <point x="469" y="1200"/>
      <point x="488" y="1252"/>
      <point x="693" y="1252" type="curve" smooth="yes"/>
      <point x="900" y="1252"/>
      <point x="917" y="1194"/>
      <point x="917" y="1082" type="curve" smooth="yes"/>
    </contour>
    <contour>
      <point x="745" y="-29" type="line" smooth="yes"/>
      <point x="1181" y="-29"/>
      <point x="1255" y="203"/>
      <point x="1255" y="490" type="curve" smooth="yes"/>
      <point x="1255" y="991" type="line" smooth="yes"/>
      <point x="1255" y="1286"/>
      <point x="1184" y="1518"/>
      <point x="745" y="1518" type="curve" smooth="yes"/>
      <point x="640" y="1518" type="line" smooth="yes"/>
      <point x="201" y="1518"/>
      <point x="131" y="1302"/>
      <point x="131" y="1007" type="curve" smooth="yes"/>
      <point x="131" y="473" type="line" smooth="yes"/>
      <point x="131" y="186"/>
      <point x="204" y="-29"/>
      <point x="640" y="-29" type="curve" smooth="yes"/>
    </contour>
  </outline>
</glyph>
<glyph name="Yacute" format="1">
  <advance width="1204"/>
  <unicode hex="00DD"/>
  <outline>
    <contour>
      <point x="-1" y="1490" type="line"/>
      <point x="340" y="492" type="line"/>
      <point x="340" y="0" type="line"/>
      <point x="668" y="0" type="line"/>
      <point x="668" y="492" type="line"/>
      <point x="1206" y="1490" type="line"/>
      <point x="873" y="1490" type="line"/>
      <point x="782" y="1275"/>
      <point x="689" y="1050"/>
      <point x="598" y="835" type="curve"/>
      <point x="347" y="1490" type="line"/>
    </contour>
    <contour>
      <point x="516" y="1928" type="line"/>
      <point x="404" y="1563" type="line"/>
      <point x="572" y="1563" type="line"/>
      <point x="802" y="1928" type="line"/>
    </contour>
  </outline>
</glyph>
<glyph name="idieresis" format="1">
  <advance width="440"/>
  <unicode hex="00EF"/>
  <outline>
    <contour>
      <point x="103" y="1080" type="line"/>
      <point x="103" y="0" type="line"/>
      <point x="381" y="0" type="line"/>
      <point x="381" y="1080" type="line"/>
    </contour>
    <contour>
      <point x="-71" y="1189" type="line"/>
      <point x="218" y="1189" type="line"/>
      <point x="218" y="1444" type="line"/>
      <point x="-71" y="1444" type="line"/>
    </contour>
    <contour>
      <point x="441" y="1189" type="line"/>
      <point x="731" y="1189" type="line"/>
      <point x="731" y="1444" type="line"/>
      <point x="441" y="1444" type="line"/>
    </contour>
  </outline>
</glyph>
<glyph name="udieresis" format="1">
  <advance width="992"/>
  <unicode hex="00FC"/>
  <outline>
    <contour>
      <point x="975" y="1080" type="line"/>
      <point x="664" y="1080" type="line"/>
      <point x="664" y="266" type="line" smooth="yes"/>
      <point x="664" y="229"/>
      <point x="595" y="186"/>
      <point x="534" y="186" type="curve" smooth="yes"/>
      <point x="485" y="186"/>
      <point x="441" y="213"/>
      <point x="441" y="290" type="curve" smooth="yes"/>
      <point x="441" y="1080" type="line"/>
      <point x="131" y="1080" type="line"/>
      <point x="131" y="226" type="line" smooth="yes"/>
      <point x="131" y="89"/>
      <point x="225" y="-24"/>
      <point x="386" y="-24" type="curve" smooth="yes"/>
      <point x="532" y="-24"/>
      <point x="606" y="30"/>
      <point x="664" y="76" type="curve"/>
      <point x="664" y="0" type="line"/>
      <point x="975" y="0" type="line"/>
    </contour>
    <contour>
      <point x="100" y="1189" type="line"/>
      <point x="389" y="1189" type="line"/>
      <point x="389" y="1444" type="line"/>
      <point x="100" y="1444" type="line"/>
    </contour>
    <contour>
      <point x="612" y="1189" type="line"/>
      <point x="902" y="1189" type="line"/>
      <point x="902" y="1444" type="line"/>
      <point x="612" y="1444" type="line"/>
    </contour>
  </outline>
</glyph>
<glyph name="Emacron" format="1">
  <advance width="821"/>
  <unicode hex="0112"/>
  <outline>
    <contour>
      <point x="201" y="1616" type="line"/>
      <point x="621" y="1616" type="line"/>
      <point x="621" y="1775" type="line"/>
      <point x="201" y="1775" type="line"/>
    </contour>
    <contour>
      <point x="162" y="0" type="line"/>
      <point x="943" y="0" type="line"/>
      <point x="943" y="261" type="line"/>
      <point x="501" y="261" type="line"/>
      <point x="501" y="636" type="line"/>
      <point x="850" y="636" type="line"/>
      <point x="850" y="877" type="line"/>
      <point x="501" y="877" type="line"/>
      <point x="501" y="1228" type="line"/>
      <point x="943" y="1228" type="line"/>
      <point x="943" y="1490" type="line"/>
      <point x="162" y="1490" type="line"/>
    </contour>
  </outline>
</glyph>
<glyph name="Kcommaaccent" format="1">
  <advance width="1174"/>
  <unicode hex="0136"/>
  <outline>
    <contour>
      <point x="89" y="0" type="line"/>
      <point x="390" y="0" type="line"/>
      <point x="390" y="540" type="line"/>
      <point x="488" y="681" type="line"/>
      <point x="893" y="0" type="line"/>
      <point x="1206" y="0" type="line"/>
      <point x="869" y="880" type="line"/>
      <point x="1184" y="1490" type="line"/>
      <point x="810" y="1490" type="line"/>
      <point x="390" y="924" type="line"/>
      <point x="390" y="1490" type="line"/>
      <point x="89" y="1490" type="line"/>
    </contour>
  </outline>
</glyph>
<glyph name="Lslash" format="1">
  <advance width="781"/>
  <unicode hex="0141"/>
  <outline>
    <contour>
      <point x="80" y="0" type="line"/>
      <point x="752" y="0" type="line"/>
      <point x="752" y="207" type="line"/>
      <point x="381" y="207" type="line"/>
      <point x="381" y="847" type="line"/>
      <point x="668" y="928" type="line"/>
      <point x="668" y="1080" type="line"/>
      <point x="381" y="999" type="line"/>
      <point x="381" y="1490" type="line"/>
      <point x="80" y="1490" type="line"/>
      <point x="80" y="885" type="line"/>
      <point x="12" y="860" type="line"/>
      <point x="12" y="708" type="line"/>
      <point x="80" y="734" type="line"/>
    </contour>
  </outline>
</glyph>
<glyph name="nacute" format="1">
  <advance width="990"/>
  <unicode hex="0144"/>
  <outline>
    <contour>
      <point x="131" y="0" type="line"/>
      <point x="441" y="0" type="line"/>
      <point x="441" y="814" type="line" smooth="yes"/>
      <point x="441" y="851"/>
      <point x="511" y="894"/>
      <point x="572" y="894" type="curve" smooth="yes"/>
      <point x="621" y="894"/>
      <point x="664" y="867"/>
      <point x="664" y="790" type="curve" smooth="yes"/>
      <point x="664" y="0" type="line"/>
      <point x="975" y="0" type="line"/>
      <point x="975" y="854" type="line" smooth="yes"/>
      <point x="975" y="991"/>
      <point x="880" y="1104"/>
      <point x="719" y="1104" type="curve" smooth="yes"/>
      <point x="573" y="1104"/>
      <point x="499" y="1050"/>
      <point x="441" y="1004" type="curve"/>
      <point x="441" y="1080" type="line"/>
      <point x="131" y="1080" type="line"/>
    </contour>
    <contour>
      <point x="335" y="1189" type="line"/>
      <point x="503" y="1189" type="line"/>
      <point x="733" y="1554" type="line"/>
      <point x="447" y="1554" type="line"/>
    </contour>
  </outline>
</glyph>
<glyph name="OE" format="1">
  <advance width="1501"/>
  <unicode hex="0152"/>
  <outline>
    <contour>
      <point x="612" y="1489" type="line" smooth="yes"/>
      <point x="173" y="1488"/>
      <point x="70" y="1257"/>
      <point x="70" y="976" type="curve" smooth="yes"/>
      <point x="70" y="504" type="line" smooth="yes"/>
      <point x="70" y="212"/>
      <point x="176" y="0"/>
      <point x="612" y="0" type="curve" smooth="yes"/>
      <point x="1476" y="0" type="line"/>
      <point x="1476" y="207" type="line"/>
      <point x="1156" y="207" type="line"/>
      <point x="1156" y="665" type="line"/>
      <point x="1383" y="665" type="line"/>
      <point x="1383" y="877" type="line"/>
      <point x="1156" y="877" type="line"/>
      <point x="1156" y="1283" type="line"/>
      <point x="1476" y="1283" type="line"/>
      <point x="1476" y="1489" type="line"/>
    </contour>
    <contour>
      <point x="855" y="1272" type="line"/>
      <point x="855" y="209" type="line"/>
      <point x="612" y="209" type="line" smooth="yes"/>
      <point x="405" y="209"/>
      <point x="371" y="335"/>
      <point x="371" y="429" type="curve" smooth="yes"/>
      <point x="371" y="1052" type="line" smooth="yes"/>
      <point x="371" y="1146"/>
      <point x="406" y="1272"/>
      <point x="612" y="1272" type="curve" smooth="yes"/>
    </contour>
  </outline>
</glyph>
<glyph name="racute" format="1">
  <advance width="590"/>
  <unicode hex="0155"/>
  <outline>
    <contour>
      <point x="131" y="0" type="line"/>
      <point x="441" y="0" type="line"/>
      <point x="441" y="700" type="line" smooth="yes"/>
      <point x="441" y="816"/>
      <point x="506" y="852"/>
      <point x="665" y="852" type="curve"/>
      <point x="665" y="1087" type="line"/>
      <point x="639" y="1091"/>
      <point x="616" y="1096"/>
      <point x="590" y="1096" type="curve" smooth="yes"/>
      <point x="526" y="1096"/>
      <point x="477" y="1050"/>
      <point x="441" y="992" type="curve"/>
      <point x="441" y="1080" type="line"/>
      <point x="131" y="1080" type="line"/>
    </contour>
    <contour>
      <point x="245" y="1189" type="line"/>
      <point x="413" y="1189" type="line"/>
      <point x="643" y="1554" type="line"/>
      <point x="357" y="1554" type="line"/>
    </contour>
  </outline>
</glyph>
<glyph name="uni0213" format="1">
  <advance width="590"/>
  <unicode hex="0213"/>
  <outline>
    <contour>
      <point x="289" y="1189" type="line"/>
      <point x="289" y="1230"/>
      <point x="305" y="1294"/>
      <point x="356" y="1294" type="curve" smooth="yes"/>
      <point x="407" y="1294"/>
      <point x="423" y="1230"/>
      <point x="423" y="1189" type="curve"/>
      <point x="565" y="1189" type="line"/>
      <point x="565" y="1311"/>
      <point x="478" y="1394"/>
      <point x="356" y="1394" type="curve" smooth="yes"/>
      <point x="234" y="1394"/>
      <point x="147" y="1311"/>
      <point x="147" y="1189" type="curve"/>
    </contour>
    <contour>
      <point x="131" y="0" type="line"/>
      <point x="441" y="0" type="line"/>
      <point x="441" y="700" type="line" smooth="yes"/>
      <point x="441" y="816"/>
      <point x="506" y="852"/>
      <point x="665" y="852" type="curve"/>
      <point x="665" y="1087" type="line"/>
      <point x="639" y="1091"/>
      <point x="616" y="1096"/>
      <point x="590" y="1096" type="curve" smooth="yes"/>
      <point x="526" y="1096"/>
      <point x="477" y="1050"/>
      <point x="441" y="992" type="curve"/>
      <point x="441" y="1080" type="line"/>
      <point x="131" y="1080" type="line"/>
    </contour>
  </outline>
</glyph>
<glyph name="circumflex" format="1">
  <advance width="875"/>
  <unicode hex="02C6"/>
  <outline>
    <contour>
      <point x="255" y="1489" type="line"/>
      <point x="89" y="1153" type="line"/>
      <point x="334" y="1153" type="line"/>
      <point x="443" y="1320" type="line"/>
      <point x="554" y="1153" type="line"/>
      <point x="801" y="1153" type="line"/>
      <point x="631" y="1489" type="line"/>
    </contour>
  </outline>
</glyph>
<glyph name="uni030F" format="1">
  <advance width="977"/>
  <unicode hex="030F"/>
  <outline>
    <contour>
      <point x="271" y="1163" type="line"/>
      <point x="559" y="1163" type="line"/>
      <point x="355" y="1528" type="line"/>
      <point x="94" y="1528" type="line"/>
    </contour>
    <contour>
      <point x="698" y="1163" type="line"/>
      <point x="867" y="1163" type="line"/>
      <point x="754" y="1528" type="line"/>
      <point x="404" y="1528" type="line"/>
    </contour>
  </outline>
</glyph>
<glyph name="daggerdbl" format="1">
  <advance width="660"/>
  <unicode hex="2021"/>
  <outline>
    <contour>
      <point x="224" y="1271" type="line"/>
      <point x="224" y="1059" type="line"/>
      <point x="65" y="1059" type="line"/>
      <point x="65" y="847" type="line"/>
      <point x="224" y="847" type="line"/>
      <point x="224" y="583" type="line"/>
      <point x="65" y="583" type="line"/>
      <point x="65" y="371" type="line"/>
      <point x="224" y="371" type="line"/>
      <point x="224" y="0" type="line"/>
      <point x="436" y="0" type="line"/>
      <point x="436" y="371" type="line"/>
      <point x="595" y="371" type="line"/>
      <point x="595" y="583" type="line"/>
      <point x="436" y="583" type="line"/>
      <point x="436" y="847" type="line"/>
      <point x="595" y="847" type="line"/>
      <point x="595" y="1059" type="line"/>
      <point x="436" y="1059" type="line"/>
      <point x="436" y="1271" type="line"/>
    </contour>
  </outline>
</glyph>
